<svg xmlns="http://www.w3.org/2000/svg" xmlns:xlink="http://www.w3.org/1999/xlink" version="1.1" x="0px" y="0px" viewBox="0 0 100 125" style="enable-background:new 0 0 100 100;" xml:space="preserve"><path d="M59,48v4c0,0.552-0.447,1-1,1H32c-0.553,0-1-0.448-1-1v-4c0-0.552,0.447-1,1-1h26C58.553,47,59,47.448,59,48z M48,59H32  c-0.553,0-1,0.448-1,1v4c0,0.552,0.447,1,1,1h16c0.553,0,1-0.448,1-1v-4C49,59.448,48.553,59,48,59z M68,35H32c-0.553,0-1,0.448-1,1  v4c0,0.552,0.447,1,1,1h36c0.553,0,1-0.448,1-1v-4C69,35.448,68.553,35,68,35z"/><text x="0" y="115" fill="#000000" font-size="5px" font-weight="bold" font-family="'Helvetica Neue', Helvetica, Arial-Unicode, Arial, Sans-serif">Created by Setyo Ari Wibowo</text><text x="0" y="120" fill="#000000" font-size="5px" font-weight="bold" font-family="'Helvetica Neue', Helvetica, Arial-Unicode, Arial, Sans-serif">from the Noun Project</text></svg>